<mxfile host="app.diagrams.net" modified="2020-11-08T09:43:11.964Z" agent="5.0 (Macintosh; Intel Mac OS X 10_15_4) AppleWebKit/537.36 (KHTML, like Gecko) Chrome/86.0.4240.183 Safari/537.36" etag="DAIn1R87465B54j59dIe" version="13.9.1" type="github">
  <diagram name="Page-1" id="c7558073-3199-34d8-9f00-42111426c3f3">
    <mxGraphModel dx="1426" dy="826" grid="1" gridSize="10" guides="1" tooltips="1" connect="1" arrows="1" fold="1" page="1" pageScale="1" pageWidth="3300" pageHeight="4681" background="#ffffff" math="0" shadow="0">
      <root>
        <mxCell id="0" />
        <mxCell id="1" parent="0" />
        <mxCell id="dodQxbUcO5LyURe6pDbE-99" value="ColumnWithTypeName" style="swimlane;fontStyle=0;childLayout=stackLayout;horizontal=1;startSize=26;fillColor=none;horizontalStack=0;resizeParent=1;resizeParentMax=0;resizeLast=0;collapsible=1;marginBottom=0;" parent="1" vertex="1" collapsed="1">
          <mxGeometry x="973.5" y="989" width="160" height="26" as="geometry">
            <mxRectangle x="973.5" y="989" width="140" height="52" as="alternateBounds" />
          </mxGeometry>
        </mxCell>
        <mxCell id="dodQxbUcO5LyURe6pDbE-103" value="Bolck" style="swimlane;fontStyle=0;childLayout=stackLayout;horizontal=1;startSize=26;fillColor=none;horizontalStack=0;resizeParent=1;resizeParentMax=0;resizeLast=0;collapsible=1;marginBottom=0;" parent="1" vertex="1" collapsed="1">
          <mxGeometry x="760" y="990" width="160" height="26" as="geometry">
            <mxRectangle x="760" y="990" width="140" height="104" as="alternateBounds" />
          </mxGeometry>
        </mxCell>
        <mxCell id="dodQxbUcO5LyURe6pDbE-104" value="+ insert" style="text;strokeColor=none;fillColor=none;align=left;verticalAlign=top;spacingLeft=4;spacingRight=4;overflow=hidden;rotatable=0;points=[[0,0.5],[1,0.5]];portConstraint=eastwest;" parent="dodQxbUcO5LyURe6pDbE-103" vertex="1">
          <mxGeometry y="26" width="160" height="26" as="geometry" />
        </mxCell>
        <mxCell id="dodQxbUcO5LyURe6pDbE-105" value="+ get" style="text;strokeColor=none;fillColor=none;align=left;verticalAlign=top;spacingLeft=4;spacingRight=4;overflow=hidden;rotatable=0;points=[[0,0.5],[1,0.5]];portConstraint=eastwest;" parent="dodQxbUcO5LyURe6pDbE-103" vertex="1">
          <mxGeometry y="52" width="160" height="26" as="geometry" />
        </mxCell>
        <mxCell id="dodQxbUcO5LyURe6pDbE-106" value="+ field: type" style="text;strokeColor=none;fillColor=none;align=left;verticalAlign=top;spacingLeft=4;spacingRight=4;overflow=hidden;rotatable=0;points=[[0,0.5],[1,0.5]];portConstraint=eastwest;" parent="dodQxbUcO5LyURe6pDbE-103" vertex="1">
          <mxGeometry y="78" width="160" height="26" as="geometry" />
        </mxCell>
        <mxCell id="dodQxbUcO5LyURe6pDbE-107" value="IDataType" style="swimlane;fontStyle=0;childLayout=stackLayout;horizontal=1;startSize=26;fillColor=none;horizontalStack=0;resizeParent=1;resizeParentMax=0;resizeLast=0;collapsible=1;marginBottom=0;" parent="1" vertex="1" collapsed="1">
          <mxGeometry x="1231" y="940" width="160" height="26" as="geometry">
            <mxRectangle x="681" y="930" width="140" height="78" as="alternateBounds" />
          </mxGeometry>
        </mxCell>
        <mxCell id="dodQxbUcO5LyURe6pDbE-108" value="+ serialize" style="text;strokeColor=none;fillColor=none;align=left;verticalAlign=top;spacingLeft=4;spacingRight=4;overflow=hidden;rotatable=0;points=[[0,0.5],[1,0.5]];portConstraint=eastwest;" parent="dodQxbUcO5LyURe6pDbE-107" vertex="1">
          <mxGeometry y="26" width="160" height="26" as="geometry" />
        </mxCell>
        <mxCell id="dodQxbUcO5LyURe6pDbE-109" value="+ deserialize" style="text;strokeColor=none;fillColor=none;align=left;verticalAlign=top;spacingLeft=4;spacingRight=4;overflow=hidden;rotatable=0;points=[[0,0.5],[1,0.5]];portConstraint=eastwest;" parent="dodQxbUcO5LyURe6pDbE-107" vertex="1">
          <mxGeometry y="52" width="160" height="26" as="geometry" />
        </mxCell>
        <mxCell id="dodQxbUcO5LyURe6pDbE-111" value="IColumn" style="swimlane;fontStyle=0;childLayout=stackLayout;horizontal=1;startSize=26;fillColor=none;horizontalStack=0;resizeParent=1;resizeParentMax=0;resizeLast=0;collapsible=1;marginBottom=0;" parent="1" vertex="1" collapsed="1">
          <mxGeometry x="1231" y="1040" width="160" height="26" as="geometry">
            <mxRectangle x="640" y="1040" width="140" height="130" as="alternateBounds" />
          </mxGeometry>
        </mxCell>
        <mxCell id="dodQxbUcO5LyURe6pDbE-112" value="+ cut" style="text;strokeColor=none;fillColor=none;align=left;verticalAlign=top;spacingLeft=4;spacingRight=4;overflow=hidden;rotatable=0;points=[[0,0.5],[1,0.5]];portConstraint=eastwest;" parent="dodQxbUcO5LyURe6pDbE-111" vertex="1">
          <mxGeometry y="26" width="160" height="26" as="geometry" />
        </mxCell>
        <mxCell id="dodQxbUcO5LyURe6pDbE-113" value="+ insert" style="text;strokeColor=none;fillColor=none;align=left;verticalAlign=top;spacingLeft=4;spacingRight=4;overflow=hidden;rotatable=0;points=[[0,0.5],[1,0.5]];portConstraint=eastwest;" parent="dodQxbUcO5LyURe6pDbE-111" vertex="1">
          <mxGeometry y="52" width="160" height="26" as="geometry" />
        </mxCell>
        <mxCell id="dodQxbUcO5LyURe6pDbE-114" value="+ filter" style="text;strokeColor=none;fillColor=none;align=left;verticalAlign=top;spacingLeft=4;spacingRight=4;overflow=hidden;rotatable=0;points=[[0,0.5],[1,0.5]];portConstraint=eastwest;" parent="dodQxbUcO5LyURe6pDbE-111" vertex="1">
          <mxGeometry y="78" width="160" height="26" as="geometry" />
        </mxCell>
        <mxCell id="dodQxbUcO5LyURe6pDbE-132" value="+ get" style="text;strokeColor=none;fillColor=none;align=left;verticalAlign=top;spacingLeft=4;spacingRight=4;overflow=hidden;rotatable=0;points=[[0,0.5],[1,0.5]];portConstraint=eastwest;" parent="dodQxbUcO5LyURe6pDbE-111" vertex="1">
          <mxGeometry y="104" width="160" height="26" as="geometry" />
        </mxCell>
        <mxCell id="dodQxbUcO5LyURe6pDbE-123" value="ColumnArray" style="swimlane;fontStyle=0;childLayout=stackLayout;horizontal=1;startSize=26;fillColor=none;horizontalStack=0;resizeParent=1;resizeParentMax=0;resizeLast=0;collapsible=1;marginBottom=0;" parent="1" vertex="1" collapsed="1">
          <mxGeometry x="1150" y="1120" width="95" height="26" as="geometry">
            <mxRectangle x="655" y="1110" width="140" height="52" as="alternateBounds" />
          </mxGeometry>
        </mxCell>
        <mxCell id="dodQxbUcO5LyURe6pDbE-127" value="Field" style="swimlane;fontStyle=0;childLayout=stackLayout;horizontal=1;startSize=26;fillColor=none;horizontalStack=0;resizeParent=1;resizeParentMax=0;resizeLast=0;collapsible=1;marginBottom=0;" parent="1" vertex="1" collapsed="1">
          <mxGeometry x="1520" y="1002" width="160" height="26" as="geometry">
            <mxRectangle x="640" y="1040" width="140" height="104" as="alternateBounds" />
          </mxGeometry>
        </mxCell>
        <mxCell id="dodQxbUcO5LyURe6pDbE-128" value="+ cut" style="text;strokeColor=none;fillColor=none;align=left;verticalAlign=top;spacingLeft=4;spacingRight=4;overflow=hidden;rotatable=0;points=[[0,0.5],[1,0.5]];portConstraint=eastwest;" parent="dodQxbUcO5LyURe6pDbE-127" vertex="1">
          <mxGeometry y="26" width="160" height="26" as="geometry" />
        </mxCell>
        <mxCell id="dodQxbUcO5LyURe6pDbE-129" value="+ insert" style="text;strokeColor=none;fillColor=none;align=left;verticalAlign=top;spacingLeft=4;spacingRight=4;overflow=hidden;rotatable=0;points=[[0,0.5],[1,0.5]];portConstraint=eastwest;" parent="dodQxbUcO5LyURe6pDbE-127" vertex="1">
          <mxGeometry y="52" width="160" height="26" as="geometry" />
        </mxCell>
        <mxCell id="dodQxbUcO5LyURe6pDbE-130" value="+ filter" style="text;strokeColor=none;fillColor=none;align=left;verticalAlign=top;spacingLeft=4;spacingRight=4;overflow=hidden;rotatable=0;points=[[0,0.5],[1,0.5]];portConstraint=eastwest;" parent="dodQxbUcO5LyURe6pDbE-127" vertex="1">
          <mxGeometry y="78" width="160" height="26" as="geometry" />
        </mxCell>
        <mxCell id="dodQxbUcO5LyURe6pDbE-135" value="" style="endArrow=open;endSize=12;dashed=1;html=1;entryX=0;entryY=0.5;entryDx=0;entryDy=0;exitX=1;exitY=0.5;exitDx=0;exitDy=0;" parent="1" source="dodQxbUcO5LyURe6pDbE-99" target="dodQxbUcO5LyURe6pDbE-111" edge="1">
          <mxGeometry width="160" relative="1" as="geometry">
            <mxPoint x="1113.5" y="1015" as="sourcePoint" />
            <mxPoint x="1170" y="1240" as="targetPoint" />
          </mxGeometry>
        </mxCell>
        <mxCell id="dodQxbUcO5LyURe6pDbE-138" value="" style="endArrow=open;endSize=12;dashed=1;html=1;entryX=0;entryY=0.75;entryDx=0;entryDy=0;exitX=1;exitY=0.5;exitDx=0;exitDy=0;" parent="1" source="dodQxbUcO5LyURe6pDbE-99" target="dodQxbUcO5LyURe6pDbE-107" edge="1">
          <mxGeometry width="160" relative="1" as="geometry">
            <mxPoint x="1134" y="1002" as="sourcePoint" />
            <mxPoint x="1200" y="1073" as="targetPoint" />
          </mxGeometry>
        </mxCell>
        <mxCell id="dodQxbUcO5LyURe6pDbE-140" value="" style="endArrow=open;endSize=12;dashed=1;html=1;entryX=0;entryY=0.5;entryDx=0;entryDy=0;exitX=1;exitY=0.5;exitDx=0;exitDy=0;" parent="1" source="dodQxbUcO5LyURe6pDbE-103" target="dodQxbUcO5LyURe6pDbE-99" edge="1">
          <mxGeometry width="160" relative="1" as="geometry">
            <mxPoint x="910" y="1002" as="sourcePoint" />
            <mxPoint x="940" y="1015" as="targetPoint" />
          </mxGeometry>
        </mxCell>
        <mxCell id="dodQxbUcO5LyURe6pDbE-141" value="ColumnString" style="swimlane;fontStyle=0;childLayout=stackLayout;horizontal=1;startSize=26;fillColor=none;horizontalStack=0;resizeParent=1;resizeParentMax=0;resizeLast=0;collapsible=1;marginBottom=0;" parent="1" vertex="1" collapsed="1">
          <mxGeometry x="1263.5" y="1120" width="95" height="26" as="geometry">
            <mxRectangle x="655" y="1110" width="140" height="52" as="alternateBounds" />
          </mxGeometry>
        </mxCell>
        <mxCell id="dodQxbUcO5LyURe6pDbE-142" value="ColumnNumber" style="swimlane;fontStyle=0;childLayout=stackLayout;horizontal=1;startSize=26;fillColor=none;horizontalStack=0;resizeParent=1;resizeParentMax=0;resizeLast=0;collapsible=1;marginBottom=0;" parent="1" vertex="1" collapsed="1">
          <mxGeometry x="1380" y="1120" width="95" height="26" as="geometry">
            <mxRectangle x="655" y="1110" width="140" height="52" as="alternateBounds" />
          </mxGeometry>
        </mxCell>
        <mxCell id="dodQxbUcO5LyURe6pDbE-143" value="" style="html=1;verticalAlign=bottom;endArrow=block;entryX=0.5;entryY=1;entryDx=0;entryDy=0;exitX=0.5;exitY=0;exitDx=0;exitDy=0;" parent="1" source="dodQxbUcO5LyURe6pDbE-123" target="dodQxbUcO5LyURe6pDbE-111" edge="1">
          <mxGeometry width="80" relative="1" as="geometry">
            <mxPoint x="1120" y="1220" as="sourcePoint" />
            <mxPoint x="1200" y="1220" as="targetPoint" />
          </mxGeometry>
        </mxCell>
        <mxCell id="dodQxbUcO5LyURe6pDbE-145" value="" style="html=1;verticalAlign=bottom;endArrow=block;entryX=0.5;entryY=1;entryDx=0;entryDy=0;exitX=0.5;exitY=0;exitDx=0;exitDy=0;" parent="1" source="dodQxbUcO5LyURe6pDbE-141" target="dodQxbUcO5LyURe6pDbE-111" edge="1">
          <mxGeometry width="80" relative="1" as="geometry">
            <mxPoint x="1222.5" y="1130" as="sourcePoint" />
            <mxPoint x="1321" y="1076" as="targetPoint" />
          </mxGeometry>
        </mxCell>
        <mxCell id="dodQxbUcO5LyURe6pDbE-146" value="" style="html=1;verticalAlign=bottom;endArrow=block;entryX=0.5;entryY=1;entryDx=0;entryDy=0;exitX=0.5;exitY=0;exitDx=0;exitDy=0;" parent="1" source="dodQxbUcO5LyURe6pDbE-142" target="dodQxbUcO5LyURe6pDbE-111" edge="1">
          <mxGeometry width="80" relative="1" as="geometry">
            <mxPoint x="1232.5" y="1140" as="sourcePoint" />
            <mxPoint x="1331" y="1086" as="targetPoint" />
          </mxGeometry>
        </mxCell>
        <mxCell id="dodQxbUcO5LyURe6pDbE-147" value="DataTypeString" style="swimlane;fontStyle=0;childLayout=stackLayout;horizontal=1;startSize=26;fillColor=none;horizontalStack=0;resizeParent=1;resizeParentMax=0;resizeLast=0;collapsible=1;marginBottom=0;" parent="1" vertex="1" collapsed="1">
          <mxGeometry x="1150" y="840" width="95" height="26" as="geometry">
            <mxRectangle x="655" y="1110" width="140" height="52" as="alternateBounds" />
          </mxGeometry>
        </mxCell>
        <mxCell id="dodQxbUcO5LyURe6pDbE-148" value="DataTypeArray" style="swimlane;fontStyle=0;childLayout=stackLayout;horizontal=1;startSize=26;fillColor=none;horizontalStack=0;resizeParent=1;resizeParentMax=0;resizeLast=0;collapsible=1;marginBottom=0;" parent="1" vertex="1" collapsed="1">
          <mxGeometry x="1263.5" y="840" width="95" height="26" as="geometry">
            <mxRectangle x="655" y="1110" width="140" height="52" as="alternateBounds" />
          </mxGeometry>
        </mxCell>
        <mxCell id="dodQxbUcO5LyURe6pDbE-149" value="DataTypeNumber" style="swimlane;fontStyle=0;childLayout=stackLayout;horizontal=1;startSize=26;fillColor=none;horizontalStack=0;resizeParent=1;resizeParentMax=0;resizeLast=0;collapsible=1;marginBottom=0;" parent="1" vertex="1" collapsed="1">
          <mxGeometry x="1380" y="840" width="95" height="26" as="geometry">
            <mxRectangle x="655" y="1110" width="140" height="52" as="alternateBounds" />
          </mxGeometry>
        </mxCell>
        <mxCell id="dodQxbUcO5LyURe6pDbE-150" value="" style="html=1;verticalAlign=bottom;endArrow=block;exitX=0.5;exitY=1;exitDx=0;exitDy=0;" parent="1" source="dodQxbUcO5LyURe6pDbE-148" target="dodQxbUcO5LyURe6pDbE-107" edge="1">
          <mxGeometry width="80" relative="1" as="geometry">
            <mxPoint x="1290" y="890" as="sourcePoint" />
            <mxPoint x="1370" y="890" as="targetPoint" />
          </mxGeometry>
        </mxCell>
        <mxCell id="dodQxbUcO5LyURe6pDbE-151" value="" style="html=1;verticalAlign=bottom;endArrow=block;exitX=0.5;exitY=1;exitDx=0;exitDy=0;entryX=0.5;entryY=0;entryDx=0;entryDy=0;" parent="1" source="dodQxbUcO5LyURe6pDbE-149" target="dodQxbUcO5LyURe6pDbE-107" edge="1">
          <mxGeometry width="80" relative="1" as="geometry">
            <mxPoint x="1321" y="876" as="sourcePoint" />
            <mxPoint x="1321" y="950" as="targetPoint" />
          </mxGeometry>
        </mxCell>
        <mxCell id="dodQxbUcO5LyURe6pDbE-152" value="" style="html=1;verticalAlign=bottom;endArrow=block;exitX=0.5;exitY=1;exitDx=0;exitDy=0;entryX=0.5;entryY=0;entryDx=0;entryDy=0;" parent="1" source="dodQxbUcO5LyURe6pDbE-147" target="dodQxbUcO5LyURe6pDbE-107" edge="1">
          <mxGeometry width="80" relative="1" as="geometry">
            <mxPoint x="1331" y="886" as="sourcePoint" />
            <mxPoint x="1331" y="960" as="targetPoint" />
          </mxGeometry>
        </mxCell>
        <mxCell id="dodQxbUcO5LyURe6pDbE-153" value="IBlockInputStream" style="swimlane;fontStyle=0;childLayout=stackLayout;horizontal=1;startSize=26;fillColor=none;horizontalStack=0;resizeParent=1;resizeParentMax=0;resizeLast=0;collapsible=1;marginBottom=0;" parent="1" vertex="1" collapsed="1">
          <mxGeometry x="510" y="963" width="160" height="26" as="geometry">
            <mxRectangle x="515" y="940" width="140" height="52" as="alternateBounds" />
          </mxGeometry>
        </mxCell>
        <mxCell id="dodQxbUcO5LyURe6pDbE-154" value="+ read" style="text;strokeColor=none;fillColor=none;align=left;verticalAlign=top;spacingLeft=4;spacingRight=4;overflow=hidden;rotatable=0;points=[[0,0.5],[1,0.5]];portConstraint=eastwest;" parent="dodQxbUcO5LyURe6pDbE-153" vertex="1">
          <mxGeometry y="26" width="160" height="26" as="geometry" />
        </mxCell>
        <mxCell id="dodQxbUcO5LyURe6pDbE-157" value="IBlockOutputStream" style="swimlane;fontStyle=0;childLayout=stackLayout;horizontal=1;startSize=26;fillColor=none;horizontalStack=0;resizeParent=1;resizeParentMax=0;resizeLast=0;collapsible=1;marginBottom=0;" parent="1" vertex="1" collapsed="1">
          <mxGeometry x="510" y="1080" width="160" height="26" as="geometry">
            <mxRectangle x="515" y="1060" width="140" height="78" as="alternateBounds" />
          </mxGeometry>
        </mxCell>
        <mxCell id="dodQxbUcO5LyURe6pDbE-158" value="+ write" style="text;strokeColor=none;fillColor=none;align=left;verticalAlign=top;spacingLeft=4;spacingRight=4;overflow=hidden;rotatable=0;points=[[0,0.5],[1,0.5]];portConstraint=eastwest;" parent="dodQxbUcO5LyURe6pDbE-157" vertex="1">
          <mxGeometry y="26" width="160" height="26" as="geometry" />
        </mxCell>
        <mxCell id="dodQxbUcO5LyURe6pDbE-159" value="+ flush" style="text;strokeColor=none;fillColor=none;align=left;verticalAlign=top;spacingLeft=4;spacingRight=4;overflow=hidden;rotatable=0;points=[[0,0.5],[1,0.5]];portConstraint=eastwest;" parent="dodQxbUcO5LyURe6pDbE-157" vertex="1">
          <mxGeometry y="52" width="160" height="26" as="geometry" />
        </mxCell>
        <mxCell id="dodQxbUcO5LyURe6pDbE-161" value="" style="endArrow=open;endSize=12;dashed=1;html=1;exitX=1;exitY=0.25;exitDx=0;exitDy=0;entryX=0;entryY=0.25;entryDx=0;entryDy=0;" parent="1" source="dodQxbUcO5LyURe6pDbE-153" target="dodQxbUcO5LyURe6pDbE-103" edge="1">
          <mxGeometry width="160" relative="1" as="geometry">
            <mxPoint x="680" y="1002" as="sourcePoint" />
            <mxPoint x="733.5" y="1001" as="targetPoint" />
          </mxGeometry>
        </mxCell>
        <mxCell id="dodQxbUcO5LyURe6pDbE-162" value="" style="endArrow=open;endSize=12;dashed=1;html=1;exitX=1;exitY=0.25;exitDx=0;exitDy=0;entryX=0;entryY=0.25;entryDx=0;entryDy=0;" parent="1" source="dodQxbUcO5LyURe6pDbE-157" target="dodQxbUcO5LyURe6pDbE-103" edge="1">
          <mxGeometry width="160" relative="1" as="geometry">
            <mxPoint x="715" y="963" as="sourcePoint" />
            <mxPoint x="750" y="1028" as="targetPoint" />
          </mxGeometry>
        </mxCell>
        <mxCell id="dodQxbUcO5LyURe6pDbE-164" value="IStorage" style="swimlane;fontStyle=0;childLayout=stackLayout;horizontal=1;startSize=26;fillColor=none;horizontalStack=0;resizeParent=1;resizeParentMax=0;resizeLast=0;collapsible=1;marginBottom=0;" parent="1" vertex="1" collapsed="1">
          <mxGeometry x="155" y="822" width="160" height="26" as="geometry">
            <mxRectangle x="515" y="1060" width="140" height="78" as="alternateBounds" />
          </mxGeometry>
        </mxCell>
        <mxCell id="dodQxbUcO5LyURe6pDbE-165" value="+ write" style="text;strokeColor=none;fillColor=none;align=left;verticalAlign=top;spacingLeft=4;spacingRight=4;overflow=hidden;rotatable=0;points=[[0,0.5],[1,0.5]];portConstraint=eastwest;" parent="dodQxbUcO5LyURe6pDbE-164" vertex="1">
          <mxGeometry y="26" width="160" height="26" as="geometry" />
        </mxCell>
        <mxCell id="dodQxbUcO5LyURe6pDbE-166" value="+ flush" style="text;strokeColor=none;fillColor=none;align=left;verticalAlign=top;spacingLeft=4;spacingRight=4;overflow=hidden;rotatable=0;points=[[0,0.5],[1,0.5]];portConstraint=eastwest;" parent="dodQxbUcO5LyURe6pDbE-164" vertex="1">
          <mxGeometry y="52" width="160" height="26" as="geometry" />
        </mxCell>
        <mxCell id="dodQxbUcO5LyURe6pDbE-167" value="StorageMergeTree" style="swimlane;fontStyle=0;childLayout=stackLayout;horizontal=1;startSize=26;fillColor=none;horizontalStack=0;resizeParent=1;resizeParentMax=0;resizeLast=0;collapsible=1;marginBottom=0;" parent="1" vertex="1">
          <mxGeometry x="80" y="914" width="140" height="52" as="geometry">
            <mxRectangle x="10" y="1014" width="160" height="26" as="alternateBounds" />
          </mxGeometry>
        </mxCell>
        <mxCell id="dodQxbUcO5LyURe6pDbE-170" value="StorageMemory" style="swimlane;fontStyle=0;childLayout=stackLayout;horizontal=1;startSize=26;fillColor=none;horizontalStack=0;resizeParent=1;resizeParentMax=0;resizeLast=0;collapsible=1;marginBottom=0;" parent="1" vertex="1">
          <mxGeometry x="251" y="914" width="140" height="52" as="geometry">
            <mxRectangle x="183.5" y="1016" width="160" height="26" as="alternateBounds" />
          </mxGeometry>
        </mxCell>
        <mxCell id="x5p53JLdajqoWZ6c-LID-4" style="edgeStyle=orthogonalEdgeStyle;rounded=0;orthogonalLoop=1;jettySize=auto;html=1;exitX=0.5;exitY=1;exitDx=0;exitDy=0;entryX=0.5;entryY=0;entryDx=0;entryDy=0;" edge="1" parent="1" source="dodQxbUcO5LyURe6pDbE-173" target="x5p53JLdajqoWZ6c-LID-1">
          <mxGeometry relative="1" as="geometry" />
        </mxCell>
        <mxCell id="dodQxbUcO5LyURe6pDbE-173" value="server" style="rounded=1;whiteSpace=wrap;html=1;fillColor=#dae8fc;strokeColor=#6c8ebf;" parent="1" vertex="1">
          <mxGeometry x="380" y="2890" width="90" height="30" as="geometry" />
        </mxCell>
        <mxCell id="x5p53JLdajqoWZ6c-LID-5" style="edgeStyle=orthogonalEdgeStyle;rounded=0;orthogonalLoop=1;jettySize=auto;html=1;exitX=0.5;exitY=1;exitDx=0;exitDy=0;" edge="1" parent="1" source="x5p53JLdajqoWZ6c-LID-1" target="x5p53JLdajqoWZ6c-LID-3">
          <mxGeometry relative="1" as="geometry" />
        </mxCell>
        <mxCell id="x5p53JLdajqoWZ6c-LID-6" style="edgeStyle=orthogonalEdgeStyle;rounded=0;orthogonalLoop=1;jettySize=auto;html=1;exitX=1;exitY=0.5;exitDx=0;exitDy=0;entryX=0;entryY=0.5;entryDx=0;entryDy=0;dashed=1;" edge="1" parent="1" source="x5p53JLdajqoWZ6c-LID-1" target="x5p53JLdajqoWZ6c-LID-2">
          <mxGeometry relative="1" as="geometry" />
        </mxCell>
        <mxCell id="x5p53JLdajqoWZ6c-LID-1" value="Get Query" style="rounded=1;whiteSpace=wrap;html=1;fillColor=#dae8fc;strokeColor=#6c8ebf;" vertex="1" parent="1">
          <mxGeometry x="380" y="2970" width="90" height="30" as="geometry" />
        </mxCell>
        <mxCell id="x5p53JLdajqoWZ6c-LID-2" value="Query 不包含Values 后面的数据" style="shape=document;whiteSpace=wrap;html=1;boundedLbl=1;fillColor=#dae8fc;strokeColor=#6c8ebf;" vertex="1" parent="1">
          <mxGeometry x="550" y="2960" width="150" height="50" as="geometry" />
        </mxCell>
        <mxCell id="x5p53JLdajqoWZ6c-LID-9" style="edgeStyle=orthogonalEdgeStyle;rounded=0;orthogonalLoop=1;jettySize=auto;html=1;exitX=0.5;exitY=1;exitDx=0;exitDy=0;dashed=1;" edge="1" parent="1" source="x5p53JLdajqoWZ6c-LID-3" target="x5p53JLdajqoWZ6c-LID-7">
          <mxGeometry relative="1" as="geometry" />
        </mxCell>
        <mxCell id="x5p53JLdajqoWZ6c-LID-10" style="edgeStyle=orthogonalEdgeStyle;rounded=0;orthogonalLoop=1;jettySize=auto;html=1;exitX=0.5;exitY=1;exitDx=0;exitDy=0;dashed=1;" edge="1" parent="1" source="x5p53JLdajqoWZ6c-LID-3" target="x5p53JLdajqoWZ6c-LID-8">
          <mxGeometry relative="1" as="geometry" />
        </mxCell>
        <mxCell id="x5p53JLdajqoWZ6c-LID-3" value="Parse Ast" style="rounded=1;whiteSpace=wrap;html=1;fillColor=#dae8fc;strokeColor=#6c8ebf;" vertex="1" parent="1">
          <mxGeometry x="380" y="3040" width="90" height="30" as="geometry" />
        </mxCell>
        <mxCell id="x5p53JLdajqoWZ6c-LID-7" value="Insert Values" style="rounded=1;whiteSpace=wrap;html=1;fillColor=#dae8fc;strokeColor=#6c8ebf;" vertex="1" parent="1">
          <mxGeometry x="290" y="3120" width="90" height="30" as="geometry" />
        </mxCell>
        <mxCell id="x5p53JLdajqoWZ6c-LID-8" value="Insert ... Select" style="rounded=1;whiteSpace=wrap;html=1;fillColor=#dae8fc;strokeColor=#6c8ebf;" vertex="1" parent="1">
          <mxGeometry x="470" y="3120" width="90" height="30" as="geometry" />
        </mxCell>
      </root>
    </mxGraphModel>
  </diagram>
</mxfile>
